<svg width="245" height="92" viewBox="0 0 245 92" fill="none" xmlns="http://www.w3.org/2000/svg">
<path d="M-1.643e-07 1C-7.35595e-08 0.447715 0.447715 0 1 0L244 -1.13951e-08C244.552 -1.14209e-08 245 0.447715 245 1L245 91C245 91.5523 244.552 92 244 92L0.999979 92C0.447694 92 -1.5042e-05 91.5523 -1.49513e-05 91L-1.643e-07 1Z" fill="#4F4E60"/>
<path d="M103.87 17.5291H141.129C146.778 17.5291 151.345 22.1525 151.345 27.8711V64.1289C151.345 69.8475 146.778 74.4709 141.129 74.4709H103.87C98.2215 74.4709 93.6543 69.8475 93.6543 64.1289V27.8711C93.6543 22.1525 98.2215 17.5291 103.87 17.5291Z" fill="#330000"/>
<path d="M121.61 51.6942H112.668L110.841 57.4127C110.793 57.6317 110.601 57.7777 110.385 57.7534H105.865C105.601 57.7534 105.529 57.6074 105.601 57.3154L113.341 34.7576C113.413 34.5143 113.485 34.2466 113.582 33.9546C113.678 33.4436 113.726 32.9083 113.726 32.3729C113.702 32.2512 113.798 32.1296 113.918 32.1052C113.942 32.1052 113.966 32.1052 113.99 32.1052H120.144C120.336 32.1052 120.432 32.1782 120.457 32.2999L129.23 57.3641C129.302 57.6317 129.23 57.7534 128.99 57.7534H123.966C123.798 57.7777 123.63 57.6561 123.581 57.4857L121.61 51.6942ZM114.062 46.7544H120.168C120.024 46.2434 119.832 45.635 119.615 45.0023C119.399 44.3453 119.182 43.6396 118.966 42.9096C118.726 42.1552 118.509 41.4252 118.269 40.6708C118.029 39.9165 117.812 39.2108 117.62 38.5051C117.428 37.8237 117.259 37.1911 117.091 36.607H117.043C116.827 37.6534 116.562 38.6998 116.226 39.7461C115.865 40.9142 115.505 42.1309 115.12 43.3476C114.784 44.5886 114.423 45.7323 114.062 46.7544Z" fill="#FF9A00"/>
<path d="M134.471 36.2663C133.678 36.2907 132.908 35.9743 132.331 35.4146C131.779 34.8063 131.49 34.0032 131.514 33.1759C131.49 32.3485 131.803 31.5698 132.379 31.0101C132.956 30.4505 133.726 30.1584 134.519 30.1584C135.456 30.1584 136.177 30.4505 136.706 31.0101C137.235 31.5942 137.524 32.3729 137.5 33.1759C137.524 34.0032 137.235 34.8063 136.658 35.4146C136.105 35.9986 135.288 36.315 134.471 36.2663ZM131.779 57.3884V38.6511C131.779 38.4077 131.875 38.3104 132.091 38.3104H136.851C137.067 38.3104 137.163 38.4321 137.163 38.6511V57.3884C137.163 57.656 137.067 57.7777 136.851 57.7777H132.139C131.899 57.7777 131.779 57.6317 131.779 57.3884Z" fill="#FF9A00"/>
<path d="M28.1976 17.5291H65.4564C71.1054 17.5291 75.6726 22.1525 75.6726 27.8711V64.1289C75.6726 69.8474 71.1054 74.4709 65.4564 74.4709H28.1976C22.5487 74.4709 17.9814 69.8474 17.9814 64.1289V27.8711C17.9814 22.1525 22.5487 17.5291 28.1976 17.5291Z" fill="#001E36"/>
<path d="M30.9619 57.4614V32.4216C30.9619 32.2513 31.034 32.1539 31.2023 32.1539C31.6109 32.1539 31.9955 32.1539 32.5484 32.1296C33.1253 32.1053 33.7263 32.1053 34.3753 32.0809C35.0243 32.0566 35.7214 32.0566 36.4666 32.0323C37.2118 32.0079 37.9329 32.0079 38.6541 32.0079C40.6252 32.0079 42.2598 32.2513 43.6059 32.7623C44.8078 33.176 45.9135 33.8573 46.827 34.7577C47.5962 35.5364 48.1971 36.4854 48.5817 37.5318C48.9423 38.5538 49.1346 39.6002 49.1346 40.6952C49.1346 42.788 48.6539 44.5157 47.6923 45.8784C46.7308 47.2411 45.3847 48.2631 43.8222 48.8472C42.1876 49.4555 40.3848 49.6745 38.4137 49.6745C37.8368 49.6745 37.4522 49.6745 37.2118 49.6502C36.9714 49.6258 36.6349 49.6258 36.1782 49.6258V57.4371C36.2022 57.6074 36.082 57.7534 35.9137 57.7778H31.2504C31.0581 57.7778 30.9619 57.6804 30.9619 57.4614ZM36.2022 36.8504V45.0267C36.5387 45.051 36.8512 45.0754 37.1397 45.0754H38.4137C39.3512 45.0754 40.2886 44.9294 41.1781 44.6373C41.9473 44.4183 42.6203 43.956 43.1492 43.3476C43.654 42.7393 43.8943 41.9119 43.8943 40.8412C43.9184 40.0869 43.7261 39.3325 43.3415 38.6755C42.9328 38.0428 42.3559 37.5561 41.6588 37.2884C40.7694 36.9234 39.8079 36.7774 38.8223 36.8018C38.1973 36.8018 37.6445 36.8018 37.1877 36.8261C36.707 36.8018 36.3705 36.8261 36.2022 36.8504Z" fill="#31A8FF"/>
<path d="M64.1338 43.5422C63.4127 43.1529 62.6435 42.8852 61.8262 42.7149C60.9368 42.5202 60.0474 42.3985 59.1339 42.3985C58.6532 42.3742 58.1484 42.4472 57.6916 42.5689C57.3791 42.6419 57.1147 42.8122 56.9465 43.0556C56.8263 43.2502 56.7542 43.4936 56.7542 43.7126C56.7542 43.9316 56.8503 44.1506 56.9945 44.3453C57.2109 44.6129 57.4993 44.8319 57.8118 45.0023C58.3647 45.2943 58.9416 45.562 59.5185 45.8053C60.8166 46.2433 62.0666 46.8517 63.2204 47.5817C64.0136 48.0927 64.6627 48.7741 65.1194 49.6014C65.504 50.3801 65.6963 51.2318 65.6722 52.1079C65.6963 53.2516 65.3598 54.3953 64.7348 55.3443C64.0617 56.3177 63.1242 57.072 62.0425 57.51C60.8647 58.021 59.4224 58.2887 57.6916 58.2887C56.5859 58.2887 55.5042 58.1914 54.4225 57.9724C53.5812 57.8264 52.7398 57.5587 51.9706 57.1937C51.8023 57.0964 51.6821 56.926 51.7062 56.7313V52.4972C51.7062 52.4242 51.7302 52.3269 51.8023 52.2782C51.8745 52.2295 51.9466 52.2539 52.0187 52.3025C52.9562 52.8622 53.9417 53.2516 54.9994 53.4949C55.9128 53.7382 56.8744 53.8599 57.8359 53.8599C58.7493 53.8599 59.3983 53.7382 59.831 53.5192C60.2156 53.3489 60.48 52.9352 60.48 52.4972C60.48 52.1565 60.2877 51.8402 59.9031 51.5238C59.5185 51.2075 58.7253 50.8425 57.5474 50.3801C56.3215 49.9421 55.1917 49.3581 54.134 48.6281C53.3888 48.0927 52.7639 47.387 52.3071 46.5597C51.9225 45.781 51.7302 44.9293 51.7543 44.0776C51.7543 43.0312 52.0427 42.0335 52.5716 41.1332C53.1725 40.1598 54.0619 39.3811 55.0955 38.8944C56.2253 38.3104 57.6436 38.0427 59.3503 38.0427C60.3358 38.0427 61.3454 38.1157 62.331 38.2617C63.0521 38.3591 63.7492 38.5537 64.3982 38.8214C64.4944 38.8458 64.5905 38.9431 64.6386 39.0404C64.6627 39.1378 64.6867 39.2351 64.6867 39.3324V43.2989C64.6867 43.3962 64.6386 43.4936 64.5665 43.5422C64.3502 43.5909 64.23 43.5909 64.1338 43.5422Z" fill="#31A8FF"/>
<path d="M179.543 17.5291H216.802C222.451 17.5291 227.018 22.1525 227.018 27.8711V64.1289C227.018 69.8475 222.451 74.471 216.802 74.471H179.543C173.894 74.471 169.327 69.8475 169.327 64.1289V27.8711C169.327 22.1525 173.894 17.5291 179.543 17.5291Z" fill="#00005B"/>
<path d="M183.029 57.4614V32.4216C183.029 32.2513 183.101 32.1539 183.269 32.1539C183.678 32.1539 184.062 32.1539 184.615 32.1296C185.192 32.1053 185.793 32.1053 186.442 32.0809C187.091 32.0566 187.788 32.0566 188.534 32.0323C189.279 32.0079 190 32.0079 190.721 32.0079C192.692 32.0079 194.327 32.2513 195.673 32.7623C196.875 33.176 197.98 33.8573 198.894 34.7577C199.663 35.5364 200.264 36.4854 200.649 37.5318C201.009 38.5538 201.202 39.6002 201.202 40.6952C201.202 42.788 200.721 44.5157 199.759 45.8784C198.798 47.2411 197.452 48.2631 195.889 48.8472C194.255 49.4555 192.452 49.6745 190.481 49.6745C189.904 49.6745 189.519 49.6745 189.279 49.6502C189.038 49.6259 188.702 49.6259 188.245 49.6259V57.4371C188.269 57.6075 188.149 57.7535 187.981 57.7778H183.317C183.125 57.7778 183.029 57.6805 183.029 57.4614ZM188.269 36.8504V45.0267C188.606 45.051 188.918 45.0754 189.207 45.0754H190.481C191.418 45.0754 192.356 44.9294 193.245 44.6374C194.014 44.4183 194.687 43.956 195.216 43.3476C195.721 42.7393 195.961 41.9119 195.961 40.8412C195.985 40.0869 195.793 39.3325 195.408 38.6755C195 38.0428 194.423 37.5561 193.726 37.2884C192.836 36.9234 191.875 36.7774 190.889 36.8018C190.264 36.8018 189.711 36.8018 189.255 36.8261C188.774 36.8018 188.437 36.8261 188.269 36.8504Z" fill="#9999FF"/>
<path d="M204.567 38.2618H208.773C209.014 38.2618 209.206 38.4321 209.278 38.6511C209.35 38.8458 209.398 39.0404 209.422 39.2595C209.471 39.5028 209.519 39.7705 209.543 40.0138C209.567 40.2815 209.591 40.5735 209.591 40.8898C210.312 40.0381 211.177 39.3325 212.163 38.7971C213.269 38.1644 214.543 37.8481 215.817 37.8481C215.985 37.8237 216.129 37.9454 216.153 38.1157V42.9582C216.153 43.1529 216.033 43.2259 215.768 43.2259C214.903 43.2016 214.014 43.2746 213.172 43.4693C212.475 43.6153 211.802 43.8343 211.153 44.1263C210.696 44.3453 210.264 44.6373 209.927 45.0266V57.4371C209.927 57.6804 209.831 57.7777 209.615 57.7777H204.879C204.687 57.8021 204.519 57.6804 204.495 57.4857V43.9073C204.495 43.3233 204.495 42.7149 204.471 42.0822C204.447 41.4495 204.447 40.8168 204.423 40.1841C204.423 39.6245 204.374 39.0891 204.326 38.5294C204.302 38.4078 204.374 38.2861 204.495 38.2618C204.495 38.2374 204.543 38.2374 204.567 38.2618Z" fill="#9999FF"/>
</svg>
