<svg width="48" height="48" viewBox="0 0 48 48" fill="none" xmlns="http://www.w3.org/2000/svg">
<path fill-rule="evenodd" clip-rule="evenodd" d="M16 48C7.16345 48 0 40.8365 0 32V16C0 7.1634 7.16346 -4.19617e-05 16 -4.19617e-05H32C40.8366 -4.19617e-05 48 7.16341 48 16V32C48 40.8366 40.8366 48 32 48H16ZM14.8021 37.2975C14.9558 37.4511 15.1626 37.4511 15.3162 37.2975L23.3398 29.2739L18.7232 24.6575L17.1768 26.1717L20.428 29.4228L18.701 31.1498L15.4316 27.8805L13.6368 29.6379L15.1097 31.1107L13.3827 32.8377L11.8916 31.3467L10.6137 32.598C10.4616 32.7515 10.4621 32.9574 10.6152 33.1106L14.8021 37.2975ZM18.0161 23.9503L9.91187 31.8857L9.90811 31.8894L9.90813 31.8894C9.36396 32.4335 9.36396 33.2735 9.90813 33.8177L14.095 38.0046C14.6392 38.5487 15.4791 38.5487 16.0233 38.0046L24.0469 29.981L29.0567 34.9905C29.0653 35.0017 29.0744 35.0125 29.0841 35.0231L30.5686 36.6425C30.5925 36.6935 30.6256 36.7413 30.6677 36.7835L31.7144 37.8302C32.6075 38.7233 33.9708 38.7233 34.8639 37.8302L37.8296 34.8645C38.7227 33.9714 38.7227 32.6081 37.8296 31.715L37.1569 31.0423C37.1447 31.0283 37.1316 31.0148 37.1176 31.002L37.1061 30.9915L36.7829 30.6683C36.7427 30.6281 36.6974 30.5962 36.6491 30.5726L35.4493 29.4727C35.4297 29.3819 35.3847 29.2955 35.3141 29.225L30.0584 23.9695L38.0046 16.0233C38.5487 15.4792 38.5487 14.6392 38.0046 14.0951L33.8177 9.90817C33.2735 9.364 32.4335 9.364 31.8894 9.90817L31.8857 9.91189L24.0267 17.938L18.7242 12.6357C18.6637 12.5268 18.5637 12.4428 18.4421 12.4031L10.4172 9.78631C10.2383 9.72796 10.0417 9.77504 9.90865 9.90812C9.77557 10.0412 9.72849 10.2377 9.78684 10.4167L12.4037 18.4416C12.4576 18.6069 12.5935 18.7323 12.7626 18.7728C12.792 18.7799 12.8217 18.7842 12.8513 18.7858L18.0161 23.9503ZM32.537 30.8938L34.0528 29.3779L18.307 13.6327L16.7917 15.148L32.537 30.8938ZM29.4555 33.9752L30.81 32.6208L15.0647 16.875L13.7098 18.23L29.4555 33.9752ZM34.9107 30.3356L36.4143 31.7139L37.1225 32.4221C37.6251 32.9247 37.6251 33.6548 37.1225 34.1574L34.1568 37.1231C33.6542 37.6256 32.9241 37.6256 32.4215 37.1231L31.7484 36.4499C31.7457 36.4469 31.743 36.4438 31.7402 36.4408L30.3367 34.9097L34.9107 30.3356ZM14.3241 16.1344L13.1017 17.3567L11.5167 12.4961L12.4966 11.5162L17.3573 13.1012L16.0511 14.4073L16.0361 14.3923L14.3091 16.1193L14.3241 16.1344ZM24.7339 18.6452L26.1942 17.1538L27.6561 18.6157L29.3831 16.8887L27.903 15.4086L29.7833 13.4884L32.973 16.678L34.7 14.951L31.4921 11.7432L32.5965 10.6153L32.598 10.6138C32.7515 10.4616 32.9574 10.4621 33.1106 10.6153L37.2975 14.8022C37.4511 14.9558 37.4511 15.1626 37.2975 15.3162L29.3513 23.2624L24.7339 18.6452Z" fill="white"/>
</svg>
