<svg width="48" height="48" viewBox="0 0 48 48" fill="none" xmlns="http://www.w3.org/2000/svg">
<path fill-rule="evenodd" clip-rule="evenodd" d="M0 32C0 40.8365 7.16345 48 16 48H32C40.8366 48 48 40.8366 48 32V16C48 7.16341 40.8366 -4.19617e-05 32 -4.19617e-05H16C7.16346 -4.19617e-05 0 7.1634 0 16V32ZM24.1206 18.8671C25.8961 18.8671 27.3354 20.2846 27.3354 22.0331C27.3354 23.7816 25.8961 25.199 24.1206 25.199C22.3451 25.199 20.9058 23.7816 20.9058 22.0331C20.9058 20.2846 22.3451 18.8671 24.1206 18.8671ZM24.2443 38L17.3032 33.957L17.4937 26.3729L20.5921 24.3176C20.5921 24.3176 22.1705 26.1166 23.9286 26.1162C25.6863 26.1159 27.6187 24.3163 27.6187 24.3163L30.9041 26.382L30.8619 33.9996L24.2443 38ZM23.7977 30.4075L18.1096 27.067L17.8981 33.4989L23.7387 36.9191L23.7977 30.4075ZM20.5129 25.0605C20.5129 25.0605 18.7452 26.2446 18.4276 26.2446C18.1097 26.2446 24.191 29.6234 24.191 29.6234L30.1862 26.4578L27.6978 25.0141C27.6978 25.0141 25.8764 26.6967 23.9931 26.7537C22.1095 26.8107 20.5129 25.0605 20.5129 25.0605ZM10 13.8984L17.0259 10L23.7739 13.9547L23.8584 17.6248C23.8584 17.6248 21.5103 18.1569 20.6316 19.6563C19.7529 21.1558 20.3462 23.618 20.3462 23.618L17.0607 25.5583L10.2091 21.5424L10 13.8984ZM16.8999 17.3135L22.6818 14.1328L22.6816 14.1327L17.1312 10.7364L11.2034 14.0076L16.8999 17.3135ZM23.2446 17.1857C23.2446 17.1857 23.087 15.0861 23.246 14.8152V14.8153C23.4048 14.5443 17.3929 18.0412 17.3929 18.0412L17.179 24.7371L19.693 23.3365C19.693 23.3365 19.1473 21.0274 20.0388 19.3928C20.9304 17.7579 23.2446 17.1857 23.2446 17.1857ZM38 13.8657L37.9152 21.8069L31.1505 25.4365L27.9676 23.6505C27.9676 23.6505 28.3897 21.1481 27.5104 19.649C26.6311 18.1498 24.2796 17.6587 24.2796 17.6587L24.4534 13.9947L31.1734 10.222L38 13.8657ZM31.5469 18.0427L31.453 24.5642L37.2151 21.5285L37.3023 14.8374L31.5469 18.0427ZM28.6607 23.3466L30.7446 24.5329L30.6605 18.0995L25.0527 14.7402L25.0274 17.2422C25.0274 17.2422 27.0468 17.6975 28.0387 19.2754C29.0306 20.853 28.6607 23.3466 28.6607 23.3466Z" fill="white"/>
</svg>
