<svg width="36" height="36" viewBox="0 0 36 36" fill="none" xmlns="http://www.w3.org/2000/svg">
<path fill-rule="evenodd" clip-rule="evenodd" d="M4.904 0H31.095C33.804 0 36 2.196 36 4.904V31.095C36 33.804 33.804 36 31.096 36H4.904C2.196 36 0 33.804 0 31.096V4.904C0 2.196 2.196 0 4.904 0Z" fill="#212121"/>
<path fill-rule="evenodd" clip-rule="evenodd" d="M23.2078 14.607C24.7838 15.733 26.7148 16.395 28.7998 16.395V12.384C28.4048 12.384 28.0118 12.343 27.6258 12.261V15.418C25.5408 15.418 23.6108 14.755 22.0338 13.63V21.814C22.0338 25.908 18.7128 29.227 14.6168 29.227C13.0888 29.227 11.6678 28.765 10.4878 27.973C11.8348 29.349 13.7128 30.203 15.7908 30.203C19.8868 30.203 23.2078 26.884 23.2078 22.79V14.607ZM24.6568 10.561C23.8518 9.68197 23.3228 8.54497 23.2078 7.28797V6.77197H22.0948C22.3748 8.36897 23.3308 9.73397 24.6568 10.561ZM13.0788 24.832C12.6288 24.242 12.3858 23.521 12.3868 22.779C12.3868 20.906 13.9058 19.388 15.7798 19.388C16.1288 19.388 16.4758 19.441 16.8088 19.547V15.447C16.4198 15.394 16.0278 15.371 15.6348 15.379V18.57C15.3018 18.464 14.9548 18.411 14.6048 18.411C12.7308 18.411 11.2118 19.929 11.2118 21.802C11.2128 23.127 11.9718 24.274 13.0788 24.832Z" fill="#EC407A"/>
<path fill-rule="evenodd" clip-rule="evenodd" d="M22.034 13.63C23.61 14.756 25.541 15.418 27.626 15.418V12.261C26.462 12.013 25.432 11.405 24.657 10.56C23.331 9.73297 22.376 8.36897 22.096 6.77197H19.173V22.79C19.166 24.657 17.65 26.169 15.78 26.169C14.678 26.169 13.699 25.644 13.079 24.831C11.972 24.273 11.213 23.126 11.213 21.802C11.213 19.929 12.732 18.411 14.606 18.411C14.965 18.411 15.311 18.467 15.636 18.57V15.38C11.612 15.463 8.37598 18.749 8.37598 22.791C8.37598 24.809 9.18198 26.638 10.49 27.974C11.67 28.766 13.091 29.228 14.619 29.228C18.715 29.228 22.036 25.909 22.036 21.815L22.034 13.63Z" fill="white"/>
<path fill-rule="evenodd" clip-rule="evenodd" d="M27.6262 12.2619V11.4079C26.5762 11.4099 25.5482 11.1159 24.6572 10.5599C25.4452 11.4229 26.4832 12.0179 27.6262 12.2619ZM22.0952 6.77192C22.0682 6.61892 22.0482 6.46592 22.0342 6.31092V5.79492H17.9982V21.8139C17.9922 23.6809 16.4752 25.1929 14.6052 25.1929C14.0562 25.1929 13.5382 25.0629 13.0792 24.8309C13.6992 25.6439 14.6782 26.1689 15.7802 26.1689C17.6502 26.1689 19.1662 24.6569 19.1732 22.7899V6.77192H22.0952ZM15.6352 15.3799V14.4709C15.2982 14.4249 14.9582 14.4019 14.6172 14.4019C10.5202 14.4019 7.2002 17.7209 7.2002 21.8149C7.2002 24.3819 8.5052 26.6439 10.4882 27.9739C9.1802 26.6379 8.3742 24.8089 8.3742 22.7909C8.3742 18.7489 11.6112 15.4629 15.6352 15.3799Z" fill="#81D4FA"/>
</svg>
