<svg width="15" height="12" viewBox="0 0 15 12" fill="none" xmlns="http://www.w3.org/2000/svg">
<path d="M9.47118 11.5C9.3171 11.5 9.16302 11.4435 9.04137 11.3225C8.8062 11.0886 8.8062 10.7015 9.04137 10.4676L13.5341 5.99898L9.04137 1.53043C8.8062 1.29652 8.8062 0.90935 9.04137 0.675436C9.27655 0.441521 9.66581 0.441521 9.90099 0.675436L14.8235 5.57149C15.0587 5.8054 15.0587 6.19257 14.8235 6.42648L9.90099 11.3225C9.77935 11.4435 9.62526 11.5 9.47118 11.5Z" fill="#F1BC3E"/>
<path d="M14.2567 6.60388H0.60822C0.275726 6.60388 0 6.32964 0 5.99893C0 5.66823 0.275726 5.39398 0.60822 5.39398H14.2567C14.5892 5.39398 14.8649 5.66823 14.8649 5.99893C14.8649 6.32964 14.5892 6.60388 14.2567 6.60388Z" fill="#F1BC3E"/>
</svg>
