<svg width="36" height="36" viewBox="0 0 36 36" fill="none" xmlns="http://www.w3.org/2000/svg">
<path d="M28.0122 35.981L8.02277 36C3.62509 36.004 0.0239907 32.4099 0.0189934 28.0122L3.33205e-06 8.02277C-0.00399456 3.62509 3.59011 0.0239907 7.98779 0.0189934L27.9772 3.33205e-06C32.3749 -0.00399456 35.976 3.59011 35.981 7.98779L36 27.9772C36.005 32.3759 32.4099 35.977 28.0122 35.981Z" fill="url(#paint0_radial_234_178)"/>
<path d="M28.0122 35.981L8.02277 36C3.62509 36.004 0.0239907 32.4099 0.0189934 28.0122L3.33205e-06 8.02277C-0.00399456 3.62509 3.59011 0.0239907 7.98779 0.0189934L27.9772 3.33205e-06C32.3749 -0.00399456 35.976 3.59011 35.981 7.98779L36 27.9772C36.005 32.3759 32.4099 35.977 28.0122 35.981Z" fill="url(#paint1_radial_234_178)"/>
<path d="M18.0002 24.9965C14.1432 24.9965 11.0039 21.8582 11.0039 18.0002C11.0039 14.1422 14.1432 11.0039 18.0002 11.0039C21.8572 11.0039 24.9965 14.1422 24.9965 18.0002C24.9965 21.8582 21.8572 24.9965 18.0002 24.9965ZM18.0002 13.0029C15.2447 13.0029 13.0029 15.2447 13.0029 18.0002C13.0029 20.7558 15.2447 22.9976 18.0002 22.9976C20.7558 22.9976 22.9976 20.7558 22.9976 18.0002C22.9976 15.2447 20.7558 13.0029 18.0002 13.0029Z" fill="white"/>
<path d="M25.4963 12.0033C26.3243 12.0033 26.9955 11.3321 26.9955 10.5041C26.9955 9.6761 26.3243 9.00488 25.4963 9.00488C24.6683 9.00488 23.9971 9.6761 23.9971 10.5041C23.9971 11.3321 24.6683 12.0033 25.4963 12.0033Z" fill="white"/>
<path d="M23.9973 30.9936H12.0036C8.14667 30.9936 5.00732 27.8553 5.00732 23.9973V12.0036C5.00732 8.14567 8.14667 5.00732 12.0036 5.00732H23.9973C27.8543 5.00732 30.9936 8.14567 30.9936 12.0036V23.9973C30.9936 27.8553 27.8543 30.9936 23.9973 30.9936ZM12.0036 7.00627C9.24809 7.00627 7.00627 9.24809 7.00627 12.0036V23.9973C7.00627 26.7528 9.24809 28.9947 12.0036 28.9947H23.9973C26.7528 28.9947 28.9947 26.7528 28.9947 23.9973V12.0036C28.9947 9.24809 26.7528 7.00627 23.9973 7.00627H12.0036Z" fill="white"/>
<defs>
<radialGradient id="paint0_radial_234_178" cx="0" cy="0" r="1" gradientUnits="userSpaceOnUse" gradientTransform="translate(13.3829 36.026) scale(44.8753 44.8753)">
<stop stop-color="#FFDD55"/>
<stop offset="0.328" stop-color="#FF543F"/>
<stop offset="0.348" stop-color="#FC5245"/>
<stop offset="0.504" stop-color="#E64771"/>
<stop offset="0.643" stop-color="#D53E91"/>
<stop offset="0.761" stop-color="#CC39A4"/>
<stop offset="0.841" stop-color="#C837AB"/>
</radialGradient>
<radialGradient id="paint1_radial_234_178" cx="0" cy="0" r="1" gradientUnits="userSpaceOnUse" gradientTransform="translate(5.79294 -0.449457) scale(29.7973 19.8539)">
<stop stop-color="#4168C9"/>
<stop offset="0.999" stop-color="#4168C9" stop-opacity="0"/>
</radialGradient>
</defs>
</svg>
