<svg width="15" height="11" viewBox="0 0 15 11" fill="none" xmlns="http://www.w3.org/2000/svg">
<path d="M9.47118 11C9.3171 11 9.16302 10.9435 9.04137 10.8225C8.8062 10.5886 8.8062 10.2015 9.04137 9.96755L13.5341 5.49898L9.04137 1.03043C8.8062 0.796518 8.8062 0.40935 9.04137 0.175436C9.27655 -0.0584785 9.66581 -0.0584785 9.90099 0.175436L14.8235 5.07149C15.0587 5.3054 15.0587 5.69257 14.8235 5.92648L9.90099 10.8225C9.77935 10.9435 9.62526 11 9.47118 11Z" fill="#F1BC3E"/>
<path d="M14.2567 6.10382H0.60822C0.275726 6.10382 0 5.82958 0 5.49887C0 5.16817 0.275726 4.89392 0.60822 4.89392H14.2567C14.5892 4.89392 14.8649 5.16817 14.8649 5.49887C14.8649 5.82958 14.5892 6.10382 14.2567 6.10382Z" fill="#F1BC3E"/>
</svg>
