<svg width="120" height="32" viewBox="0 0 120 32" fill="none" xmlns="http://www.w3.org/2000/svg">
<path fill-rule="evenodd" clip-rule="evenodd" d="M44 15.9999C44 24.8365 51.1634 31.9999 60 31.9999C68.8366 31.9999 76 24.8365 76 15.9999C76 7.16338 68.8366 -6.10352e-05 60 -6.10352e-05C51.1634 -6.10352e-05 44 7.16338 44 15.9999ZM60.0799 12.5779C61.2636 12.5779 62.2231 13.5229 62.2231 14.6886C62.2231 15.8542 61.2636 16.7992 60.0799 16.7992C58.8963 16.7992 57.9367 15.8542 57.9367 14.6886C57.9367 13.5229 58.8963 12.5779 60.0799 12.5779ZM60.1626 25.3333L55.5352 22.638L55.6622 17.5819L57.7278 16.2117C57.7278 16.2117 58.7801 17.411 59.9521 17.4108C61.1239 17.4106 62.4122 16.2108 62.4122 16.2108L64.6024 17.588L64.5743 22.6664L60.1626 25.3333ZM59.8649 20.2717L56.0728 18.0447L55.9318 22.3326L59.8255 24.6127L59.8649 20.2717ZM57.675 16.707C57.675 16.707 56.4965 17.4964 56.2848 17.4964C56.0729 17.4964 60.127 19.7489 60.127 19.7489L64.1239 17.6385L62.4649 16.6761C62.4649 16.6761 61.2507 17.7978 59.9951 17.8358C58.7394 17.8738 57.675 16.707 57.675 16.707ZM50.6664 9.26557L55.3503 6.66664L59.849 9.3031L59.9053 11.7498C59.9053 11.7498 58.3399 12.1045 57.7541 13.1042C57.1683 14.1038 57.5639 15.7453 57.5639 15.7453L55.3735 17.0389L50.8058 14.3615L50.6664 9.26557ZM55.2663 11.5423L59.1209 9.42187L59.1208 9.42175L55.4205 7.15756L51.4686 9.33836L55.2663 11.5423ZM59.4961 11.4571C59.4961 11.4571 59.391 10.0573 59.497 9.87674V9.87685C59.6029 9.69614 55.595 12.0274 55.595 12.0274L55.4524 16.4913L57.1284 15.5576C57.1284 15.5576 56.7646 14.0183 57.3589 12.9285C57.9533 11.8386 59.4961 11.4571 59.4961 11.4571ZM69.3331 9.24378L69.2765 14.5379L64.7667 16.9576L62.6448 15.767C62.6448 15.767 62.9262 14.0987 62.34 13.0993C61.7538 12.0999 60.1861 11.7724 60.1861 11.7724L60.302 9.3298L64.782 6.81461L69.3331 9.24378ZM65.031 12.0284L64.9684 16.3761L68.8098 14.3523L68.8679 9.89157L65.031 12.0284ZM63.1068 15.5644L64.4961 16.3552L64.44 12.0663L60.7015 9.82677L60.6846 11.4947C60.6846 11.4947 62.0309 11.7983 62.6922 12.8502C63.3535 13.902 63.1068 15.5644 63.1068 15.5644Z" fill="white"/>
<path fill-rule="evenodd" clip-rule="evenodd" d="M16 31.9999C7.16344 31.9999 0 24.8365 0 15.9999C0 7.16338 7.16344 -6.10352e-05 16 -6.10352e-05C24.8366 -6.10352e-05 32 7.16338 32 15.9999C32 24.8365 24.8366 31.9999 16 31.9999ZM9.98569 24.7471C10.0112 24.7726 10.0306 24.7751 10.0392 24.7751C10.0478 24.7751 10.0672 24.7726 10.0927 24.7471L15.3238 19.5159L12.4806 16.6728L11.5686 17.5658L13.6181 19.6152L12.4668 20.7666L10.4051 18.705L9.2089 19.8763L10.0731 20.7405L8.92177 21.8918L8.04544 21.0155L7.1932 21.85C7.16882 21.8749 7.16642 21.8938 7.16642 21.9023C7.16642 21.9109 7.1689 21.9303 7.19443 21.9558L9.98569 24.7471ZM11.7734 15.9656L6.49106 21.138L6.4873 21.1416L6.48732 21.1417C6.05945 21.5695 6.05945 22.235 6.48732 22.6629L9.27859 25.4542C9.70645 25.882 10.3719 25.882 10.7998 25.4542L16.0309 20.223L19.2451 23.437C19.2517 23.4453 19.2587 23.4534 19.266 23.4614L20.2415 24.5256C20.2639 24.5667 20.2925 24.6053 20.3273 24.6401L21.0251 25.3379C21.6856 25.9984 22.7 25.9984 23.3604 25.3379L25.3376 23.3608C25.9981 22.7003 25.9981 21.6859 25.3376 21.0254L24.8861 20.574C24.8777 20.5649 24.8688 20.556 24.8596 20.5474L24.6398 20.3276C24.6057 20.2935 24.5679 20.2654 24.5277 20.2432L23.78 19.5578C23.7561 19.4875 23.7162 19.4214 23.6601 19.3654L20.2743 15.9796L25.454 10.8C25.8818 10.3721 25.8818 9.70661 25.454 9.27874L22.6627 6.48746C22.2348 6.0596 21.5693 6.0596 21.1415 6.48746L21.1377 6.49119L21.1378 6.49121L16.0162 11.7217L12.6156 8.32114C12.5542 8.22277 12.4596 8.14723 12.3462 8.11026L6.99631 6.36572C6.81737 6.30737 6.62083 6.35444 6.48774 6.48753C6.35466 6.62061 6.30758 6.81715 6.36593 6.99609L8.11047 12.346C8.16438 12.5113 8.30029 12.6368 8.46937 12.6773L8.47708 12.6791L8.4893 12.6816L11.7734 15.9656ZM21.5731 20.4779L22.4657 19.5852L12.2042 9.32398L11.3119 10.2163L21.5731 20.4779ZM19.6366 22.4144L20.4217 21.6292L10.1606 11.3677L9.37509 12.1532L19.6366 22.4144ZM23.2782 20.4544L24.1676 21.2697L24.6305 21.7325C24.9004 22.0025 24.9004 22.3837 24.6305 22.6537L22.6533 24.6308C22.3834 24.9008 22.0021 24.9008 21.7322 24.6308L21.2804 24.179L20.4546 23.2781L23.2782 20.4544ZM16.7234 12.4289L17.5805 11.5535L18.4374 12.4103L19.5887 11.2589L18.7197 10.39L19.9731 9.10997L21.9818 11.1186L23.1331 9.96721L21.1123 7.9465L21.8486 7.19457L21.8498 7.19334C21.8747 7.16896 21.8936 7.16656 21.9021 7.16656C21.9107 7.16656 21.9301 7.16904 21.9556 7.19457L24.7469 9.98585C24.7724 10.0114 24.7749 10.0308 24.7749 10.0394C24.7749 10.048 24.7724 10.0673 24.7469 10.0929L19.5672 15.2726L16.7234 12.4289ZM8.19873 7.80963L7.80985 8.19852L8.80855 11.2612L11.2614 8.80834L8.19873 7.80963Z" fill="white"/>
<path fill-rule="evenodd" clip-rule="evenodd" d="M88 15.9999C88 24.8365 95.1634 31.9999 104 31.9999C112.837 31.9999 120 24.8365 120 15.9999C120 7.16338 112.837 -6.10352e-05 104 -6.10352e-05C95.1634 -6.10352e-05 88 7.16338 88 15.9999ZM106.548 25.3333H101.452V21.2638H106.548V25.3333ZM107.949 21.2638V25.3333C110.842 25.324 112.737 23.8306 113.213 21.2638H107.949ZM94.6665 19.8643V12.0894C94.6665 8.69197 96.6918 6.66657 100.089 6.66657H107.911C111.308 6.66657 113.334 8.69197 113.334 12.0894V19.8643H94.6665ZM106.277 12.0987L104.336 10.9787C103.925 10.7454 103.524 10.624 103.151 10.624C102.871 10.624 102.619 10.6894 102.385 10.82C101.844 11.128 101.545 11.7627 101.545 12.5841V14.8242C101.545 15.6455 101.844 16.2802 102.385 16.5882C102.927 16.9055 103.617 16.8495 104.336 16.4295L106.277 15.3095C106.996 14.8988 107.388 14.3201 107.388 13.6948C107.388 13.0694 106.987 12.5187 106.277 12.0987ZM94.7866 21.2638C95.2627 23.8306 97.1574 25.324 100.051 25.3333V21.2638H94.7866Z" fill="white"/>
</svg>
