<svg width="24" height="24" viewBox="0 0 24 24" fill="none" xmlns="http://www.w3.org/2000/svg">
<path d="M7.19995 20H3.19995V8.00002H7.19995V20ZM5.20075 6.40002C4.09435 6.40002 3.19995 5.50322 3.19995 4.39922C3.19995 3.29522 4.09595 2.40002 5.20075 2.40002C6.30315 2.40002 7.19995 3.29682 7.19995 4.39922C7.19995 5.50322 6.30315 6.40002 5.20075 6.40002ZM21.6 20H17.7544V14.16C17.7544 12.7672 17.728 10.976 15.7552 10.976C13.7528 10.976 13.4448 12.4928 13.4448 14.0592V20H9.59995V7.99122H13.2912V9.63202H13.3432C13.8568 8.68802 15.112 7.69282 16.984 7.69282C20.88 7.69282 21.6 10.18 21.6 13.4136V20Z" fill="white"/>
</svg>
