<svg width="38" height="24" viewBox="0 0 38 24" fill="none" xmlns="http://www.w3.org/2000/svg">
<path fill-rule="evenodd" clip-rule="evenodd" d="M5.72212 23.387L8.58081 18.4084L10.2204 15.5486H13.5044H21.8631H24.2966L23.0822 13.4299L21.4379 10.5701H16.3678H13.0839L14.3029 8.45137L15.9425 5.59157H18.5792H19.2265H21.8631L23.5075 8.45137L24.7218 10.5701H24.7265L24.7218 10.5748L27.5805 15.5486L29.2201 18.4084H25.9362H20.2235H11.8648L9.00608 23.387H17.3648H18.9194H28.7996H32.0836H37.8057L34.947 18.4084L33.3026 15.5486L30.4439 10.5701L29.2249 8.45137L27.5852 5.59632V5.59157L24.7218 0.613037H22.0852H19.0044H18.8012H15.7205H13.0839L10.2204 5.59157L9.45969 6.92171L8.58081 8.45137L7.36174 10.5701L4.50304 15.5486L2.8587 18.4084L0 23.387H5.72212Z" fill="#F1BC3E"/>
</svg>
