<svg width="64" height="38" viewBox="0 0 64 38" fill="none" xmlns="http://www.w3.org/2000/svg">
<path fill-rule="evenodd" clip-rule="evenodd" d="M9.68679 38L14.5262 29.6929L17.3018 24.9212H22.8611H37.0114H41.1309L39.0751 21.3859L36.2915 16.6141H27.7085H22.1492L24.213 13.0788L26.9886 8.30705H31.4521H32.5479H37.0114L39.795 13.0788L41.8508 16.6141H41.8588L41.8508 16.622L46.6902 24.9212L49.4658 29.6929H43.9065H34.2357H20.0855L15.2461 38H29.3963H32.028H48.7539H54.3132H64L59.1606 29.6929L56.377 24.9212L51.5376 16.6141L49.4738 13.0788L46.6982 8.31498V8.30705L41.8508 0H37.3873H32.172H31.828H26.6127H22.1492L17.3018 8.30705L16.014 10.5265L14.5262 13.0788L12.4624 16.6141L7.62305 24.9212L4.83939 29.6929L0 38H9.68679Z" fill="#F1BC3E"/>
</svg>
