<svg width="48" height="48" viewBox="0 0 48 48" fill="none" xmlns="http://www.w3.org/2000/svg">
<path fill-rule="evenodd" clip-rule="evenodd" d="M0 32C0 40.8365 7.16345 48 16 48H32C40.8366 48 48 40.8366 48 32V16C48 7.16341 40.8366 -4.19617e-05 32 -4.19617e-05H16C7.16346 -4.19617e-05 0 7.1634 0 16V32ZM27.8219 38H20.1778V31.8958H27.8219V38ZM29.9241 31.8958V38C34.2642 37.986 37.1063 35.7459 37.8203 31.8958H29.9241ZM10 29.7965V18.1341C10 13.0379 13.0381 9.99985 18.1343 9.99985H29.8666C34.9628 9.99985 38.0009 13.0379 38.0009 18.1341V29.7965H10ZM27.4165 18.1481L24.5044 16.468C23.8884 16.118 23.2864 15.936 22.7264 15.936C22.3064 15.936 21.9284 16.034 21.5784 16.23C20.7663 16.692 20.3183 17.6441 20.3183 18.8761V22.2362C20.3183 23.4683 20.7663 24.4203 21.5784 24.8823C22.3904 25.3583 23.4264 25.2743 24.5044 24.6443L27.4165 22.9642C28.4946 22.3482 29.0826 21.4802 29.0826 20.5422C29.0826 19.6041 28.4806 18.7781 27.4165 18.1481ZM10.1802 31.8958C10.8942 35.7459 13.7363 37.986 18.0764 38V31.8958H10.1802Z" fill="white"/>
</svg>
